<svg id="visual" viewBox="0 0 960 540" width="960" height="540" xmlns="http://www.w3.org/2000/svg" xmlns:xlink="http://www.w3.org/1999/xlink" version="1.1"><path d="M103 0L105.7 12.8C108.3 25.7 113.7 51.3 135.3 77C157 102.7 195 128.3 210.5 154C226 179.7 219 205.3 201 231.2C183 257 154 283 139.2 308.8C124.3 334.7 123.7 360.3 139.8 386C156 411.7 189 437.3 192.5 463C196 488.7 170 514.3 157 527.2L144 540L0 540L0 527.2C0 514.3 0 488.7 0 463C0 437.3 0 411.7 0 386C0 360.3 0 334.7 0 308.8C0 283 0 257 0 231.2C0 205.3 0 179.7 0 154C0 128.3 0 102.7 0 77C0 51.3 0 25.7 0 12.8L0 0Z" fill="#659aeb" stroke-linecap="round" stroke-linejoin="miter"></path></svg>