<svg id="visual" viewBox="0 0 900 600" width="900" height="600" xmlns="http://www.w3.org/2000/svg" xmlns:xlink="http://www.w3.org/1999/xlink" version="1.1"><rect x="0" y="0" width="900" height="600" fill="#ffffff"></rect><path d="M672 600L675.5 585.7C679 571.3 686 542.7 702 514.2C718 485.7 743 457.3 726.5 428.8C710 400.3 652 371.7 626 343C600 314.3 606 285.7 612 257C618 228.3 624 199.7 625.2 171.2C626.3 142.7 622.7 114.3 639.2 85.8C655.7 57.3 692.3 28.7 710.7 14.3L729 0L900 0L900 14.3C900 28.7 900 57.3 900 85.8C900 114.3 900 142.7 900 171.2C900 199.7 900 228.3 900 257C900 285.7 900 314.3 900 343C900 371.7 900 400.3 900 428.8C900 457.3 900 485.7 900 514.2C900 542.7 900 571.3 900 585.7L900 600Z" fill="#7bacf4" stroke-linecap="round" stroke-linejoin="miter"></path></svg>