<svg id="visual" viewBox="0 0 960 540" width="960" height="540" xmlns="http://www.w3.org/2000/svg" xmlns:xlink="http://www.w3.org/1999/xlink" version="1.1"><path d="M671 540L673.7 527.2C676.3 514.3 681.7 488.7 692.7 463C703.7 437.3 720.3 411.7 731 386C741.7 360.3 746.3 334.7 746.3 308.8C746.3 283 741.7 257 727.3 231.2C713 205.3 689 179.7 672.5 154C656 128.3 647 102.7 664 77C681 51.3 724 25.7 745.5 12.8L767 0L960 0L960 12.8C960 25.7 960 51.3 960 77C960 102.7 960 128.3 960 154C960 179.7 960 205.3 960 231.2C960 257 960 283 960 308.8C960 334.7 960 360.3 960 386C960 411.7 960 437.3 960 463C960 488.7 960 514.3 960 527.2L960 540Z" fill="#659aeb" stroke-linecap="round" stroke-linejoin="miter"></path></svg>